HIERARCHY
ROOT Hips
{
	OFFSET 0.000000 8.830580 0.000000
	CHANNELS 6 Xposition Yposition Zposition Zrotation Yrotation Xrotation 
	JOINT Spine
	{
		OFFSET 0.000000 0.010000 0.000000
		CHANNELS 3 Zrotation Yrotation Xrotation
		JOINT Spine1
		{
			OFFSET 0.000000 2.459130 0.000000
			CHANNELS 3 Zrotation Yrotation Xrotation
			JOINT Neck
			{
				OFFSET 0.000000 2.484630 0.000000
				CHANNELS 3 Zrotation Yrotation Xrotation
				JOINT Head_virtual
				{
					OFFSET 0.000000 0.000000 0.000000
					CHANNELS 3 Zrotation Yrotation Xrotation
					JOINT Head
					{
						OFFSET 0.000000 0.927525 0.000000
						CHANNELS 3 Zrotation Yrotation Xrotation
						End Site
						{
							OFFSET 0.000000 0.000000 0.000000
						}
					}
				}
				JOINT LeftUpArm_virtual
				{
					OFFSET 0.000000 0.000000 0.000000
					CHANNELS 3 Zrotation Yrotation Xrotation
					JOINT LeftUpArm
					{
						OFFSET 1.248820 0.000000 0.000000
						CHANNELS 3 Zrotation Yrotation Xrotation
						JOINT LeftForeArm
						{
							OFFSET 2.597580 0.000000 0.000000
							CHANNELS 3 Zrotation Yrotation Xrotation
							JOINT LeftHand
							{
								OFFSET 2.455420 0.000000 0.000000
								CHANNELS 3 Zrotation Yrotation Xrotation
								End Site
								{
									OFFSET 0.000000 0.000000 0.000000
								}
							}
						}
					}
				}
				JOINT RightUpArm_virtual
				{
					OFFSET -0.000000 -0.000000 -0.000000
					CHANNELS 3 Zrotation Yrotation Xrotation
					JOINT RightUpArm
					{
						OFFSET -1.248820 -0.000000 -0.000000
						CHANNELS 3 Zrotation Yrotation Xrotation
						JOINT RightForeArm
						{
							OFFSET -2.597580 -0.000000 -0.000000
							CHANNELS 3 Zrotation Yrotation Xrotation
							JOINT RightHand
							{
								OFFSET -2.455420 -0.000000 -0.000000
								CHANNELS 3 Zrotation Yrotation Xrotation
								End Site
								{
									OFFSET 0.000000 0.000000 0.000000
								}
							}
						}
					}
				}
			}
		}
	}
	JOINT LeftUpLeg
	{
		OFFSET 1.271939 0.000000 0.000000
		CHANNELS 3 Zrotation Yrotation Xrotation
		JOINT LeftLowLeg
		{
			OFFSET 0.000000 -4.342910 0.000000
			CHANNELS 3 Zrotation Yrotation Xrotation
			JOINT LeftFoot
			{
				OFFSET 0.000000 -4.487670 0.000000
				CHANNELS 3 Zrotation Yrotation Xrotation
				JOINT LeftToeBase
				{
					OFFSET 0.000000 0.000000 1.515070
					CHANNELS 3 Zrotation Yrotation Xrotation
					End Site
					{
						OFFSET 0.000000 0.000000 0.000000
					}
				}
			}
		}
	}
	JOINT RightUpLeg
	{
		OFFSET -1.271939 0.000000 0.000000
		CHANNELS 3 Zrotation Yrotation Xrotation
		JOINT RightLowLeg
		{
			OFFSET 0.000000 -4.342910 0.000000
			CHANNELS 3 Zrotation Yrotation Xrotation
			JOINT RightFoot
			{
				OFFSET 0.000000 -4.487670 0.000000
				CHANNELS 3 Zrotation Yrotation Xrotation
				JOINT RightToeBase
				{
					OFFSET 0.000000 0.000000 1.515070
					CHANNELS 3 Zrotation Yrotation Xrotation
					End Site
					{
						OFFSET 0.000000 0.000000 0.000000
					}
				}
			}
		}
	}
}
MOTION
Frames: 7
Frame Time: 0.041667
-21.597488 9.251799 37.781481 -171.453840 11.028051 178.766568 5.057874 -2.703664 -21.372858 4.301749 -4.931069 36.878029 0.000000 0.000000 0.000000 5.370682 -2.535102 -1.165977 10.587672 1.171185 -57.660399 -30.440701 -1.594430 -6.207720 -36.028599 -2.908250 31.520800 0.000000 -31.067200 0.000000 4.565670 8.728800 -1.128280 27.345501 0.033214 3.176940 39.184399 8.549480 10.912100 0.000000 23.225201 0.000000 1.390980 -1.284710 -7.640380 11.993940 13.749617 13.188453 0.000000 0.000000 1.507560 -8.274097 6.580376 5.310334 0.000000 0.000000 -9.924380 9.772894 9.419736 5.710603 0.000000 0.000000 6.652000 12.066472 -21.000653 11.018486 0.000000 0.000000 -11.670720 
-21.609976 9.252154 37.786548 -171.460192 11.117436 178.798175 4.964854 -2.790998 -21.322828 4.368944 -4.916118 36.867406 0.000000 0.000000 0.000000 5.149849 -2.463582 -1.118682 10.740587 0.993715 -57.709633 -30.466700 -1.696410 -6.422100 -36.000702 -2.938620 31.667999 0.000000 -31.670500 0.000000 4.839040 8.650150 -0.876952 27.219101 0.034984 3.223730 39.181599 8.551660 11.061100 0.000000 23.246700 0.000000 1.355040 -1.532500 -7.751390 11.854308 13.575330 13.105275 0.000000 0.000000 1.568960 -8.247788 6.789593 5.225256 0.000000 0.000000 -9.943620 9.683745 9.463803 5.629370 0.000000 0.000000 6.658880 12.070328 -20.952492 11.070343 0.000000 0.000000 -11.677920 
-21.624420 9.252546 37.791875 -171.461817 11.226011 178.811283 5.015026 -2.604744 -21.331416 4.046229 -4.922975 36.955856 0.000000 0.000000 0.000000 5.247163 -2.486498 -1.071113 10.708503 1.081611 -57.744872 -30.293200 -1.807170 -6.492970 -35.939800 -3.102300 31.663401 0.000000 -32.304501 0.000000 4.972080 8.589470 -0.848462 27.262400 0.040051 3.209030 39.256500 8.588070 11.109700 0.000000 23.106001 0.000000 1.378930 -1.474360 -7.712860 11.739623 13.523738 13.038931 0.000000 0.000000 1.647990 -8.205289 6.906650 5.150686 0.000000 0.000000 -9.916330 9.591813 9.554830 5.574524 0.000000 0.000000 6.650380 12.153655 -20.901729 11.103180 0.000000 0.000000 -11.673280 
-21.639012 9.252151 37.796001 -171.455875 11.399844 178.843955 5.088496 -2.395375 -21.293212 3.763867 -4.904930 36.907318 0.000000 0.000000 0.000000 5.288558 -2.502052 -0.973150 10.651398 1.126181 -57.797869 -30.204800 -1.864080 -6.500670 -35.818901 -3.265190 31.716801 0.000000 -32.883900 0.000000 5.179060 8.338060 -0.847673 27.328400 0.073773 3.199060 39.266602 8.501420 11.125300 0.000000 23.079901 0.000000 1.361630 -1.367370 -7.602730 11.601013 13.384744 13.002513 0.000000 0.000000 1.680390 -8.191841 7.145559 5.050486 0.000000 0.000000 -9.864780 9.495809 9.649325 5.505030 0.000000 0.000000 6.652120 12.211711 -20.797591 11.136554 0.000000 0.000000 -11.680910 
-21.654630 9.252215 37.800890 -171.475465 11.501675 178.859389 5.129223 -2.220961 -21.267051 3.500439 -4.889117 36.908008 0.000000 0.000000 0.000000 5.283386 -2.465796 -0.904988 10.693382 1.171024 -57.901873 -30.068899 -1.977540 -6.516460 -35.774601 -3.384780 31.648800 0.000000 -33.510899 0.000000 5.356480 8.317870 -0.751970 27.401400 0.131527 3.199930 39.227901 8.449990 11.214100 0.000000 23.049299 0.000000 1.324220 -1.446150 -7.872000 11.443964 13.251207 12.897071 0.000000 0.000000 1.823750 -8.136665 7.321764 4.939576 0.000000 0.000000 -9.770660 9.368648 9.669455 5.449367 0.000000 0.000000 6.631910 12.279639 -20.688881 11.167734 0.000000 0.000000 -11.682580 
-21.668877 9.251732 37.804881 -171.493626 11.645717 178.902027 5.127866 -2.124664 -21.243812 3.357655 -4.862664 36.883687 0.000000 0.000000 0.000000 5.143752 -2.346054 -0.827965 10.736412 1.174423 -58.038687 -30.006701 -2.019430 -6.558070 -35.725300 -3.473540 31.663000 0.000000 -34.109699 0.000000 5.640780 8.217930 -0.854140 27.412399 0.191403 3.252400 39.195599 8.412850 11.116500 0.000000 23.118099 0.000000 1.414640 -1.558340 -7.684290 11.292471 13.150944 12.790192 0.000000 0.000000 1.953220 -8.110544 7.488149 4.832711 0.000000 0.000000 -9.764060 9.246373 9.719143 5.380448 0.000000 0.000000 6.602750 12.342972 -20.569908 11.194827 0.000000 0.000000 -11.698430 
-21.684365 9.251509 37.809102 -171.508934 11.752180 178.918342 5.131622 -2.031070 -21.210470 3.204625 -4.847713 36.889873 0.000000 0.000000 0.000000 4.995858 -2.220544 -0.783928 10.897453 1.152573 -58.184982 -29.905800 -2.073480 -6.612160 -35.723701 -3.529030 31.653900 0.000000 -34.689602 0.000000 5.926810 8.111020 -0.882621 27.438101 0.233533 3.320260 39.119598 8.491220 11.233600 0.000000 23.086700 0.000000 1.390530 -1.563940 -7.612320 11.107596 12.901680 12.649632 0.000000 0.000000 2.167730 -8.034356 7.785939 4.659650 0.000000 0.000000 -9.718980 9.132420 9.765544 5.344675 0.000000 0.000000 6.556800 12.391805 -20.509822 11.221453 0.000000 0.000000 -11.664340 
